<svg width="35" height="26" viewBox="0 0 35 26" fill="none" xmlns="http://www.w3.org/2000/svg">
<path d="M35 3.01884C33.7123 3.53135 32.3283 3.87651 30.8758 4.0321C32.359 3.23587 33.4979 1.97421 34.0331 0.470673C32.6463 1.20806 31.1092 1.7441 29.4729 2.03304C28.1648 0.78184 26.2967 0 24.2317 0C19.5956 0 16.189 3.87782 17.236 7.90338C11.27 7.63536 5.97917 5.07281 2.43688 1.17799C0.555625 4.07132 1.46125 7.85631 4.65792 9.77299C3.4825 9.739 2.37417 9.45006 1.40729 8.96762C1.32854 11.9499 3.71292 14.7399 7.16625 15.3609C6.15563 15.6067 5.04875 15.6642 3.92292 15.4707C4.83583 18.0281 7.48708 19.8885 10.6313 19.9408C7.6125 22.0628 3.80917 23.0107 0 22.608C3.17771 24.4345 6.95333 25.5 11.0075 25.5C24.3396 25.5 31.8719 15.4054 31.4169 6.35147C32.8198 5.44281 34.0375 4.30927 35 3.01884Z" fill="white"/>
</svg>
