<svg width="20" height="20" viewBox="0 0 20 20" fill="none" xmlns="http://www.w3.org/2000/svg">
<path fill-rule="evenodd" clip-rule="evenodd" d="M10 0C15.5232 0 20 4.47676 20 10C20 15.5232 15.5232 20 10 20C4.47676 20 0 15.5232 0 10C0 4.47676 4.47676 0 10 0Z" fill="#F0B90B"/>
<path d="M5.49599 10L5.50321 12.6442L7.75 13.9663V15.5144L4.1883 13.4255V9.22676L5.49599 10ZM5.49599 7.35577V8.89663L4.1875 8.12259V6.58173L5.49599 5.80769L6.8109 6.58173L5.49599 7.35577ZM8.6883 6.58173L9.99679 5.80769L11.3117 6.58173L9.99679 7.35577L8.6883 6.58173Z" fill="white"/>
<path d="M6.44153 12.0962V10.5481L7.75002 11.3221V12.863L6.44153 12.0962ZM8.68832 14.5208L9.99682 15.2949L11.3117 14.5208V16.0617L9.99682 16.8357L8.68832 16.0617V14.5208ZM13.1883 6.58173L14.4968 5.80769L15.8117 6.58173V8.12259L14.4968 8.89663V7.35577L13.1883 6.58173ZM14.4968 12.6442L14.504 10L15.8125 9.22596V13.4247L12.2508 15.5136V13.9655L14.4968 12.6442Z" fill="white"/>
<path d="M13.5585 12.0962L12.25 12.863V11.3221L13.5585 10.5481V12.0962Z" fill="white"/>
<path d="M13.5585 7.90384L13.5657 9.45192L11.3125 10.774V13.4247L10.004 14.1915L8.69553 13.4247V10.774L6.44233 9.45192V7.90384L7.75643 7.12981L9.99602 8.45833L12.2492 7.12981L13.5641 7.90384H13.5585ZM6.44153 5.26041L9.99682 3.16426L13.5585 5.26041L12.25 6.03445L9.99682 4.70593L7.75002 6.03445L6.44153 5.26041Z" fill="white"/>
</svg>
