<svg width="24" height="20" viewBox="0 0 24 20" fill="none" xmlns="http://www.w3.org/2000/svg">
<g clip-path="url(#clip0_121_2)">
<path fill-rule="evenodd" clip-rule="evenodd" d="M4.39483 0.0982016L0.0187843 8.9037C0.00213225 8.93645 -0.0031447 8.97345 0.00372522 9.00928C0.0105951 9.04511 0.0292515 9.0779 0.056966 9.10284L11.8756 19.9519C11.9092 19.9827 11.9539 20 12.0004 20C12.0469 20 12.0916 19.9827 12.1252 19.9519L23.9438 9.10352C23.9715 9.07857 23.9902 9.04579 23.9971 9.00996C24.0039 8.97413 23.9987 8.93713 23.982 8.90438L19.606 0.0988789C19.5919 0.0693063 19.5691 0.0442546 19.5406 0.0267178C19.512 0.00918091 19.4787 -9.92458e-05 19.4448 -1.35946e-05H4.55745C4.52334 -0.000420112 4.48984 0.0086365 4.46098 0.0260637C4.43213 0.043491 4.40915 0.0685443 4.39483 0.0982016Z" fill="#50AF95"/>
<path fill-rule="evenodd" clip-rule="evenodd" d="M13.5184 9.80797C13.4336 9.81407 12.9952 9.83913 12.0173 9.83913C11.2396 9.83913 10.6873 9.81678 10.4936 9.80797C7.48786 9.68131 5.24433 9.18007 5.24433 8.57994C5.24433 7.97982 7.48786 7.47926 10.4936 7.35056V9.30877C10.6902 9.32232 11.253 9.35415 12.0308 9.35415C12.9641 9.35415 13.4315 9.3169 13.5156 9.30945V7.35192C16.515 7.47993 18.7536 7.98117 18.7536 8.57994C18.7536 9.17872 16.5157 9.67995 13.5156 9.8073L13.5184 9.80797ZM13.5184 7.14939V5.3971H17.7043V2.72496H6.30776V5.3971H10.4929V7.14871C7.09119 7.29841 4.53302 7.94392 4.53302 8.71745C4.53302 9.49098 7.09119 10.1358 10.4929 10.2862V15.9014H13.5177V10.2841C16.9117 10.1345 19.4656 9.48962 19.4656 8.71677C19.4656 7.94392 16.9138 7.29908 13.5177 7.14871L13.5184 7.14939Z" fill="white"/>
</g>
<defs>
<clipPath id="clip0_121_2">
<rect width="24" height="20" fill="white"/>
</clipPath>
</defs>
</svg>
